<?xml version="1.0" encoding="UTF-8" standalone="no"?><!DOCTYPE svg PUBLIC "-//W3C//DTD SVG 1.1//EN" "http://www.w3.org/Graphics/SVG/1.1/DTD/svg11.dtd"><svg width="100%" height="100%" viewBox="0 0 36 36" version="1.1" xmlns="http://www.w3.org/2000/svg" xmlns:xlink="http://www.w3.org/1999/xlink" xml:space="preserve" xmlns:serif="http://www.serif.com/" style="fill-rule:evenodd;clip-rule:evenodd;stroke-linejoin:round;stroke-miterlimit:2;"><path d="M16.911,2.377c7.098,0.104 12.909,5.381 13.895,12.189c1.804,2.126 2.778,4.835 2.739,7.623c0,0.008 0,0.017 0,0.026c-0.093,6.348 -5.389,11.496 -11.737,11.408c-2.799,-0.034 -5.494,-1.087 -7.575,-2.96c-6.777,-1.186 -11.882,-7.148 -11.778,-14.245c0.115,-7.87 6.587,-14.156 14.456,-14.041Zm5.206,8.092c-6.392,-0.081 -11.641,5.032 -11.726,11.423c-0.047,3.339 1.355,6.542 3.842,8.771c1.13,0.197 2.28,0.257 3.423,0.181c-3.398,-1.665 -5.541,-5.156 -5.486,-8.94c0.078,-5.374 4.565,-9.732 9.939,-9.653c0.004,-0 0.008,-0 0.011,-0c3.78,0.061 7.202,2.303 8.767,5.744c-0.66,6.933 -6.279,12.39 -13.231,12.849c1.299,0.636 2.721,0.976 4.166,0.997c5.374,0.079 9.862,-4.28 9.94,-9.654c0.021,-1.445 -0.277,-2.877 -0.875,-4.192c0.111,-1.142 0.083,-2.293 -0.082,-3.428c-2.162,-2.561 -5.336,-4.058 -8.688,-4.098Z" style="fill:#3ee9e5;"/></svg>